<mxfile host="Electron" modified="2023-12-22T05:37:44.943Z" agent="Mozilla/5.0 (Macintosh; Intel Mac OS X 10_15_7) AppleWebKit/537.36 (KHTML, like Gecko) draw.io/22.0.2 Chrome/114.0.5735.289 Electron/25.8.4 Safari/537.36" etag="NovAHRhhBA4_-peDpX9d" version="22.0.2" type="device">
  <diagram name="第 1 页" id="WMV5SGMaOWIw96JW6HGW">
    <mxGraphModel dx="680" dy="398" grid="0" gridSize="10" guides="1" tooltips="1" connect="1" arrows="1" fold="1" page="1" pageScale="1" pageWidth="827" pageHeight="1169" math="0" shadow="0">
      <root>
        <mxCell id="0" />
        <mxCell id="1" parent="0" />
        <mxCell id="cfIv2OA54-v19udgc8Vi-5" style="rounded=0;orthogonalLoop=1;jettySize=auto;html=1;exitX=1;exitY=1;exitDx=0;exitDy=0;entryX=0.5;entryY=0;entryDx=0;entryDy=0;" edge="1" parent="1" source="cfIv2OA54-v19udgc8Vi-1" target="cfIv2OA54-v19udgc8Vi-3">
          <mxGeometry relative="1" as="geometry" />
        </mxCell>
        <mxCell id="cfIv2OA54-v19udgc8Vi-1" value="S" style="ellipse;whiteSpace=wrap;html=1;aspect=fixed;" vertex="1" parent="1">
          <mxGeometry x="280" y="260" width="23" height="23" as="geometry" />
        </mxCell>
        <mxCell id="cfIv2OA54-v19udgc8Vi-4" style="rounded=0;orthogonalLoop=1;jettySize=auto;html=1;exitX=0.5;exitY=0;exitDx=0;exitDy=0;entryX=0;entryY=1;entryDx=0;entryDy=0;" edge="1" parent="1" source="cfIv2OA54-v19udgc8Vi-2" target="cfIv2OA54-v19udgc8Vi-1">
          <mxGeometry relative="1" as="geometry" />
        </mxCell>
        <mxCell id="cfIv2OA54-v19udgc8Vi-2" value="R" style="ellipse;whiteSpace=wrap;html=1;aspect=fixed;" vertex="1" parent="1">
          <mxGeometry x="247" y="325" width="23" height="23" as="geometry" />
        </mxCell>
        <mxCell id="cfIv2OA54-v19udgc8Vi-6" style="rounded=0;orthogonalLoop=1;jettySize=auto;html=1;exitX=0;exitY=0.5;exitDx=0;exitDy=0;" edge="1" parent="1" source="cfIv2OA54-v19udgc8Vi-3" target="cfIv2OA54-v19udgc8Vi-2">
          <mxGeometry relative="1" as="geometry" />
        </mxCell>
        <mxCell id="cfIv2OA54-v19udgc8Vi-3" value="Q" style="ellipse;whiteSpace=wrap;html=1;aspect=fixed;" vertex="1" parent="1">
          <mxGeometry x="315" y="325" width="23" height="23" as="geometry" />
        </mxCell>
        <mxCell id="cfIv2OA54-v19udgc8Vi-7" value="&lt;p style=&quot;box-sizing: border-box; line-height: inherit; orphans: 4; margin: 0.8em 0px; position: relative; caret-color: rgb(51, 51, 51); color: rgb(51, 51, 51); font-family: &amp;quot;Open Sans&amp;quot;, &amp;quot;Clear Sans&amp;quot;, &amp;quot;Helvetica Neue&amp;quot;, Helvetica, Arial, &amp;quot;Segoe UI Emoji&amp;quot;, sans-serif; font-size: 16px; text-align: start; background-color: rgb(255, 255, 255);&quot; class=&quot;md-end-block md-p&quot;&gt;&lt;code style=&quot;box-sizing: border-box; font-family: var(--monospace); vertical-align: initial; border: 1px solid rgb(231, 234, 237); background-color: rgb(243, 244, 244); border-radius: 3px; padding: 0px 2px; font-size: 0.9em;&quot;&gt;S = Qc | c&lt;/code&gt;&lt;/p&gt;&lt;p style=&quot;box-sizing: border-box; line-height: inherit; orphans: 4; margin: 0.8em 0px; position: relative; caret-color: rgb(51, 51, 51); color: rgb(51, 51, 51); font-family: &amp;quot;Open Sans&amp;quot;, &amp;quot;Clear Sans&amp;quot;, &amp;quot;Helvetica Neue&amp;quot;, Helvetica, Arial, &amp;quot;Segoe UI Emoji&amp;quot;, sans-serif; font-size: 16px; text-align: start; background-color: rgb(255, 255, 255);&quot; class=&quot;md-end-block md-p&quot;&gt;&lt;span style=&quot;box-sizing: border-box;&quot; class=&quot;md-pair-s&quot; spellcheck=&quot;false&quot;&gt;&lt;code style=&quot;box-sizing: border-box; font-family: var(--monospace); vertical-align: initial; border: 1px solid rgb(231, 234, 237); background-color: rgb(243, 244, 244); border-radius: 3px; padding: 0px 2px; font-size: 0.9em;&quot;&gt;Q = Rb | b&lt;/code&gt;&lt;/span&gt;&lt;/p&gt;&lt;p style=&quot;box-sizing: border-box; line-height: inherit; orphans: 4; margin: 0.8em 0px; position: relative; caret-color: rgb(51, 51, 51); color: rgb(51, 51, 51); font-family: &amp;quot;Open Sans&amp;quot;, &amp;quot;Clear Sans&amp;quot;, &amp;quot;Helvetica Neue&amp;quot;, Helvetica, Arial, &amp;quot;Segoe UI Emoji&amp;quot;, sans-serif; font-size: 16px; text-align: start; background-color: rgb(255, 255, 255);&quot; class=&quot;md-end-block md-p md-focus&quot;&gt;&lt;span style=&quot;box-sizing: border-box;&quot; class=&quot;md-pair-s md-expand&quot; spellcheck=&quot;false&quot;&gt;&lt;code style=&quot;box-sizing: border-box; font-family: var(--monospace); vertical-align: initial; border: 1px solid rgb(231, 234, 237); background-color: rgb(243, 244, 244); border-radius: 3px; padding: 0px 2px; font-size: 0.9em;&quot;&gt;R = Sa | a&lt;/code&gt;&lt;/span&gt;&lt;/p&gt;" style="text;html=1;strokeColor=none;fillColor=none;align=center;verticalAlign=middle;whiteSpace=wrap;rounded=0;" vertex="1" parent="1">
          <mxGeometry x="223" y="391" width="137" height="30" as="geometry" />
        </mxCell>
        <mxCell id="cfIv2OA54-v19udgc8Vi-8" style="rounded=0;orthogonalLoop=1;jettySize=auto;html=1;exitX=1;exitY=1;exitDx=0;exitDy=0;entryX=1;entryY=0.5;entryDx=0;entryDy=0;" edge="1" parent="1" source="cfIv2OA54-v19udgc8Vi-9" target="cfIv2OA54-v19udgc8Vi-11">
          <mxGeometry relative="1" as="geometry">
            <mxPoint x="499.5" y="325" as="targetPoint" />
            <Array as="points">
              <mxPoint x="500" y="336" />
            </Array>
          </mxGeometry>
        </mxCell>
        <mxCell id="cfIv2OA54-v19udgc8Vi-9" value="S" style="ellipse;whiteSpace=wrap;html=1;aspect=fixed;" vertex="1" parent="1">
          <mxGeometry x="453" y="260" width="23" height="23" as="geometry" />
        </mxCell>
        <mxCell id="cfIv2OA54-v19udgc8Vi-10" style="rounded=0;orthogonalLoop=1;jettySize=auto;html=1;exitX=0.5;exitY=0;exitDx=0;exitDy=0;entryX=0;entryY=1;entryDx=0;entryDy=0;" edge="1" parent="1" source="cfIv2OA54-v19udgc8Vi-11" target="cfIv2OA54-v19udgc8Vi-9">
          <mxGeometry relative="1" as="geometry" />
        </mxCell>
        <mxCell id="cfIv2OA54-v19udgc8Vi-11" value="R" style="ellipse;whiteSpace=wrap;html=1;aspect=fixed;" vertex="1" parent="1">
          <mxGeometry x="420" y="325" width="23" height="23" as="geometry" />
        </mxCell>
        <mxCell id="cfIv2OA54-v19udgc8Vi-14" value="&lt;p style=&quot;box-sizing: border-box; line-height: inherit; orphans: 4; margin: 0.8em 0px; position: relative; caret-color: rgb(51, 51, 51); color: rgb(51, 51, 51); font-family: &amp;quot;Open Sans&amp;quot;, &amp;quot;Clear Sans&amp;quot;, &amp;quot;Helvetica Neue&amp;quot;, Helvetica, Arial, &amp;quot;Segoe UI Emoji&amp;quot;, sans-serif; font-size: 16px; text-align: start; background-color: rgb(255, 255, 255);&quot; class=&quot;md-end-block md-p&quot;&gt;&lt;code style=&quot;box-sizing: border-box; font-family: var(--monospace); vertical-align: initial; border: 1px solid rgb(231, 234, 237); background-color: rgb(243, 244, 244); border-radius: 3px; padding: 0px 2px; font-size: 0.9em;&quot;&gt;S = Qc | c&lt;/code&gt;&lt;/p&gt;&lt;p style=&quot;box-sizing: border-box; line-height: inherit; orphans: 4; margin: 0.8em 0px; position: relative; caret-color: rgb(51, 51, 51); color: rgb(51, 51, 51); font-family: &amp;quot;Open Sans&amp;quot;, &amp;quot;Clear Sans&amp;quot;, &amp;quot;Helvetica Neue&amp;quot;, Helvetica, Arial, &amp;quot;Segoe UI Emoji&amp;quot;, sans-serif; font-size: 16px; text-align: start; background-color: rgb(255, 255, 255);&quot; class=&quot;md-end-block md-p&quot;&gt;&lt;span style=&quot;box-sizing: border-box;&quot; class=&quot;md-pair-s&quot; spellcheck=&quot;false&quot;&gt;&lt;code style=&quot;box-sizing: border-box; font-family: var(--monospace); vertical-align: initial; border: 1px solid rgb(231, 234, 237); background-color: rgb(243, 244, 244); border-radius: 3px; padding: 0px 2px; font-size: 0.9em;&quot;&gt;Q = Sab | ab | b&lt;/code&gt;&lt;/span&gt;&lt;/p&gt;&lt;p style=&quot;box-sizing: border-box; line-height: inherit; orphans: 4; margin: 0.8em 0px; position: relative; caret-color: rgb(51, 51, 51); color: rgb(51, 51, 51); font-family: &amp;quot;Open Sans&amp;quot;, &amp;quot;Clear Sans&amp;quot;, &amp;quot;Helvetica Neue&amp;quot;, Helvetica, Arial, &amp;quot;Segoe UI Emoji&amp;quot;, sans-serif; font-size: 16px; text-align: start; background-color: rgb(255, 255, 255);&quot; class=&quot;md-end-block md-p md-focus&quot;&gt;&lt;span style=&quot;box-sizing: border-box;&quot; class=&quot;md-pair-s md-expand&quot; spellcheck=&quot;false&quot;&gt;&lt;code style=&quot;box-sizing: border-box; font-family: var(--monospace); vertical-align: initial; border: 1px solid rgb(231, 234, 237); background-color: rgb(243, 244, 244); border-radius: 3px; padding: 0px 2px; font-size: 0.9em;&quot;&gt;R = Sa | a&lt;/code&gt;&lt;/span&gt;&lt;/p&gt;" style="text;html=1;strokeColor=none;fillColor=none;align=center;verticalAlign=middle;whiteSpace=wrap;rounded=0;" vertex="1" parent="1">
          <mxGeometry x="396" y="391" width="137" height="30" as="geometry" />
        </mxCell>
        <mxCell id="cfIv2OA54-v19udgc8Vi-21" value="S" style="ellipse;whiteSpace=wrap;html=1;aspect=fixed;" vertex="1" parent="1">
          <mxGeometry x="643" y="260" width="23" height="23" as="geometry" />
        </mxCell>
        <mxCell id="cfIv2OA54-v19udgc8Vi-22" style="rounded=0;orthogonalLoop=1;jettySize=auto;html=1;exitX=1;exitY=1;exitDx=0;exitDy=0;entryX=0;entryY=1;entryDx=0;entryDy=0;" edge="1" parent="1" source="cfIv2OA54-v19udgc8Vi-21" target="cfIv2OA54-v19udgc8Vi-21">
          <mxGeometry relative="1" as="geometry">
            <mxPoint x="621.5" y="325" as="sourcePoint" />
            <Array as="points">
              <mxPoint x="685" y="335" />
              <mxPoint x="620" y="334" />
            </Array>
          </mxGeometry>
        </mxCell>
        <mxCell id="cfIv2OA54-v19udgc8Vi-24" value="&lt;p style=&quot;box-sizing: border-box; line-height: inherit; orphans: 4; margin: 0.8em 0px; position: relative; caret-color: rgb(51, 51, 51); color: rgb(51, 51, 51); font-family: &amp;quot;Open Sans&amp;quot;, &amp;quot;Clear Sans&amp;quot;, &amp;quot;Helvetica Neue&amp;quot;, Helvetica, Arial, &amp;quot;Segoe UI Emoji&amp;quot;, sans-serif; font-size: 16px; text-align: start; background-color: rgb(255, 255, 255);&quot; class=&quot;md-end-block md-p&quot;&gt;&lt;code style=&quot;box-sizing: border-box; font-family: var(--monospace); vertical-align: initial; border: 1px solid rgb(231, 234, 237); background-color: rgb(243, 244, 244); border-radius: 3px; padding: 0px 2px; font-size: 0.9em;&quot;&gt;S = Sabc | abc | bc | c&lt;/code&gt;&lt;/p&gt;&lt;p style=&quot;box-sizing: border-box; line-height: inherit; orphans: 4; margin: 0.8em 0px; position: relative; caret-color: rgb(51, 51, 51); color: rgb(51, 51, 51); font-family: &amp;quot;Open Sans&amp;quot;, &amp;quot;Clear Sans&amp;quot;, &amp;quot;Helvetica Neue&amp;quot;, Helvetica, Arial, &amp;quot;Segoe UI Emoji&amp;quot;, sans-serif; font-size: 16px; text-align: start; background-color: rgb(255, 255, 255);&quot; class=&quot;md-end-block md-p&quot;&gt;&lt;span style=&quot;box-sizing: border-box;&quot; class=&quot;md-pair-s&quot; spellcheck=&quot;false&quot;&gt;&lt;code style=&quot;box-sizing: border-box; font-family: var(--monospace); vertical-align: initial; border: 1px solid rgb(231, 234, 237); background-color: rgb(243, 244, 244); border-radius: 3px; padding: 0px 2px; font-size: 0.9em;&quot;&gt;Q = Sab | ab | b&lt;/code&gt;&lt;/span&gt;&lt;/p&gt;&lt;p style=&quot;box-sizing: border-box; line-height: inherit; orphans: 4; margin: 0.8em 0px; position: relative; caret-color: rgb(51, 51, 51); color: rgb(51, 51, 51); font-family: &amp;quot;Open Sans&amp;quot;, &amp;quot;Clear Sans&amp;quot;, &amp;quot;Helvetica Neue&amp;quot;, Helvetica, Arial, &amp;quot;Segoe UI Emoji&amp;quot;, sans-serif; font-size: 16px; text-align: start; background-color: rgb(255, 255, 255);&quot; class=&quot;md-end-block md-p md-focus&quot;&gt;&lt;span style=&quot;box-sizing: border-box;&quot; class=&quot;md-pair-s md-expand&quot; spellcheck=&quot;false&quot;&gt;&lt;code style=&quot;box-sizing: border-box; font-family: var(--monospace); vertical-align: initial; border: 1px solid rgb(231, 234, 237); background-color: rgb(243, 244, 244); border-radius: 3px; padding: 0px 2px; font-size: 0.9em;&quot;&gt;R = Sa | a&lt;/code&gt;&lt;/span&gt;&lt;/p&gt;" style="text;html=1;strokeColor=none;fillColor=none;align=center;verticalAlign=middle;whiteSpace=wrap;rounded=0;" vertex="1" parent="1">
          <mxGeometry x="586" y="391" width="152" height="30" as="geometry" />
        </mxCell>
      </root>
    </mxGraphModel>
  </diagram>
</mxfile>
